<svg width="152" height="72" viewBox="0 0 152 72" fill="none" xmlns="http://www.w3.org/2000/svg">
<g clip-path="url(#clip0_2_2)">
<rect width="152" height="72" fill="#CED8E1"/>
<path d="M28.952 16.656C29.768 16.656 30.72 16.776 31.808 17.016C32.912 17.256 33.712 17.512 34.208 17.784V22.344H33.56C32.056 19.8 30.056 18.528 27.56 18.528C26.456 18.528 25.456 18.848 24.56 19.488C23.664 20.112 22.96 20.984 22.448 22.104C21.936 23.208 21.68 24.456 21.68 25.848C21.68 27.448 21.928 28.92 22.424 30.264C22.92 31.592 23.68 32.656 24.704 33.456C25.744 34.256 27.024 34.656 28.544 34.656C29.872 34.656 31.8 33.584 34.328 31.44L35 32.52L30.584 35.952C30.008 36.16 29.448 36.296 28.904 36.36C28.376 36.44 27.808 36.48 27.2 36.48C25.552 36.48 24.088 36.072 22.808 35.256C21.528 34.44 20.528 33.32 19.808 31.896C19.104 30.456 18.752 28.824 18.752 27C18.752 25.128 19.288 23.4 20.36 21.816C21.432 20.216 22.768 18.96 24.368 18.048C25.968 17.12 27.496 16.656 28.952 16.656ZM45.1852 36.048H38.1292V35.424L40.3852 33.672V18.888L37.9132 18L38.3212 17.16H45.3772V17.784L43.0972 19.536V34.272L45.5932 35.208L45.1852 36.048ZM65.6508 36.072H61.3308L55.9068 27.504L54.7788 26.664L55.0908 26.04H56.4828C57.6188 26.04 58.5148 25.768 59.1708 25.224C59.8268 24.664 60.1548 23.896 60.1548 22.92C60.1548 21.624 59.7948 20.544 59.0748 19.68C58.3548 18.816 57.2988 18.384 55.9068 18.384C54.9788 18.384 54.1308 18.656 53.3628 19.2V34.32L55.8588 35.208L55.4508 36.048H48.3948V35.424L50.6508 33.672V18.864L48.1788 18L48.5868 17.16H51.1308C52.5868 17.16 54.0348 17.112 55.4748 17.016C56.4988 16.952 57.2668 16.92 57.7788 16.92C58.8188 16.92 59.7468 17.136 60.5628 17.568C61.3788 18 62.0108 18.584 62.4588 19.32C62.9068 20.04 63.1308 20.84 63.1308 21.72C63.1308 22.52 62.8748 23.288 62.3628 24.024C61.8508 24.76 61.1868 25.4 60.3708 25.944C59.5708 26.472 58.7228 26.872 57.8268 27.144L59.3388 27.672L63.1788 33.744L66.0588 35.232L65.6508 36.072ZM75.0776 35.184L74.6696 36.024H67.6136V35.4L69.8696 33.648V18.864L67.3976 17.976L67.8056 17.136H74.8616V17.76L72.5816 19.512V34.296L75.0776 35.184ZM85.8056 36.024H81.6056L74.0456 26.568L81.4856 20.088L78.7256 18L79.1336 17.16H85.4456V17.784L76.6376 25.464L83.3816 33.792L86.2136 35.184L85.8056 36.024ZM105.02 19.536V28.56C105.02 30.24 104.62 31.68 103.82 32.88C103.02 34.08 102.028 34.984 100.844 35.592C99.6596 36.184 98.5076 36.48 97.3876 36.48C95.9796 36.48 94.7236 36.168 93.6196 35.544C92.5156 34.904 91.6516 34.032 91.0276 32.928C90.4036 31.808 90.0916 30.552 90.0916 29.16V18.864L87.6196 17.976L88.0516 17.136H95.1076V17.76L92.8276 19.536V27.936C92.8276 30.048 93.3396 31.688 94.3636 32.856C95.3876 34.024 96.9396 34.608 99.0196 34.608C99.7876 34.608 100.54 34.36 101.276 33.864C102.028 33.352 102.644 32.608 103.124 31.632C103.604 30.656 103.844 29.504 103.844 28.176V19.272L101.396 17.976L101.828 17.136H107.3V17.76L105.02 19.536ZM120.318 31.68C120.318 31.184 120.118 30.72 119.718 30.288C119.318 29.84 118.822 29.448 118.23 29.112C117.638 28.76 116.814 28.312 115.758 27.768C114.526 27.144 113.534 26.608 112.782 26.16C112.046 25.712 111.414 25.184 110.886 24.576C110.374 23.952 110.118 23.264 110.118 22.512C110.118 21.712 110.446 20.856 111.102 19.944C111.758 19.016 112.558 18.24 113.502 17.616C114.462 16.976 115.342 16.656 116.142 16.656C117.118 16.656 118.246 16.776 119.526 17.016C120.822 17.256 121.766 17.512 122.358 17.784V22.32H121.71C120.91 21.008 120.03 20 119.07 19.296C118.11 18.576 117.102 18.216 116.046 18.216C115.07 18.216 114.302 18.52 113.742 19.128C113.182 19.72 112.902 20.496 112.902 21.456C112.902 21.984 113.11 22.48 113.526 22.944C113.942 23.392 114.454 23.8 115.062 24.168C115.686 24.536 116.526 24.984 117.582 25.512C118.782 26.12 119.742 26.648 120.462 27.096C121.198 27.528 121.814 28.048 122.31 28.656C122.822 29.248 123.078 29.912 123.078 30.648C123.078 31.448 122.726 32.312 122.022 33.24C121.318 34.152 120.454 34.928 119.43 35.568C118.422 36.192 117.502 36.504 116.67 36.504C115.646 36.504 114.43 36.384 113.022 36.144C111.614 35.904 110.606 35.648 109.998 35.376V30.84H110.646C111.494 32.152 112.446 33.168 113.502 33.888C114.574 34.592 115.67 34.944 116.79 34.944C117.494 34.944 118.11 34.792 118.638 34.488C119.182 34.184 119.598 33.784 119.886 33.288C120.174 32.776 120.318 32.24 120.318 31.68Z" fill="black"/>
<path d="M81.72 59H67.512V58.376L69.768 56.6V41.864L67.296 40.976L67.704 40.136H74.76V40.76L72.48 42.536V58.064H78.84L82.32 52.88L82.92 53.072V59.432L81.72 59ZM93.3414 59.048H86.2854V58.424L88.5414 56.672V41.888L86.0694 41L86.4774 40.16H93.5334V40.784L91.2534 42.536V57.272L93.7494 58.208L93.3414 59.048ZM111.767 45.104L111.167 45.272L108.335 41.072H101.519V48.896H105.479L107.231 45.752H107.855V52.232L107.015 52.664L105.575 49.832H101.519V57.104L105.167 58.16L104.735 59H96.5511V58.376L98.8071 56.6V41.84L96.3351 40.976L96.7431 40.136H110.567L111.767 39.704V45.104ZM129.37 59H115.114V58.376L117.37 56.6V41.84L114.898 40.976L115.306 40.136H129.13L130.33 39.704V45.104L129.73 45.272L126.898 41.072H120.082V48.896H124.042L125.794 45.752H126.418V53.096L125.578 53.528L124.09 49.832H120.082V58.064H126.802L129.97 53.36L130.57 53.552V59.432L129.37 59Z" fill="#6964E2"/>
</g>
<defs>
<clipPath id="clip0_2_2">
<rect width="152" height="72" fill="white"/>
</clipPath>
</defs>
</svg>
